#!OML:ASF F:\VICON\USERDATA\INSTALL\rory3\rory3.ASF
:FULLY-SPECIFIED
:DEGREES
155
root -0.354789 18.2425 2.5555 -3.27732 -1.52575 -5.45018
lowerback 11.0979 -0.296989 2.96415
upperback 0.595818 0.116664 2.38604
thorax -5.6068 0.0115116 0.811174
lowerneck -16.9607 -3.02203 -1.49186
upperneck 21.0581 -3.87772 0.285134
head 9.48632 -1.89461 -0.160244
rclavicle 5.3237e-015 2.76311e-014
rhumerus -28.8723 -17.8106 -79.5873
rradius 22.901
rwrist 6.67635
rhand -18.0854 20.496
rfingers 7.12502
rthumb 8.18787 -9.32537
lclavicle 5.3237e-015 2.76311e-014
lhumerus -28.1993 -3.41938 85.6473
lradius 27.7408
lwrist 7.16838
lhand -28.9926 23.8617
lfingers 7.12502
lthumb -2.34452 53.8286
rfemur -10.7681 6.3237 31.2905
rtibia 27.9175
rfoot -11.581 -0.967164
rtoes 10.8885
lfemur -17.661 3.49756 -13.707
ltibia 70.8104
lfoot 0.295382 -12.3904
ltoes -5.44769
156
root -0.362604 18.2369 2.71677 -3.3748 -1.63573 -5.60855
lowerback 11.1539 -0.163016 3.17604
upperback 0.715159 0.317097 2.34687
thorax -5.50954 0.105791 0.618632
lowerneck -16.9629 -3.09856 -1.42412
upperneck 20.897 -4.00375 0.301375
head 9.4302 -1.94634 -0.180684
rclavicle 5.11249e-015 2.18663e-014
rhumerus -28.3133 -17.8269 -79.8551
rradius 23.0721
rwrist 6.91221
rhand -18.1279 19.7696
rfingers 7.12502
rthumb 8.14686 -10.0533
lclavicle 5.11249e-015 2.18663e-014
lhumerus -28.1391 -3.08735 85.614
lradius 27.2999
lwrist 7.31566
lhand -28.3493 25.7961
lfingers 7.12502
lthumb -1.72326 55.7688
rfemur -10.0433 6.27096 31.5751
rtibia 27.9083
rfoot -11.889 -1.18941
rtoes 11.7009
lfemur -18.5937 3.69268 -13.5076
ltibia 70.6537
lfoot -0.544448 -11.6659
ltoes -5.89647
157
root -0.365305 18.2251 2.87791 -3.38031 -1.57912 -5.4767
lowerback 11.1493 -0.0575189 3.1419
upperback 0.69546 0.445955 2.2147
thorax -5.5251 0.168176 0.479047
lowerneck -16.9635 -3.11972 -1.35998
upperneck 20.9615 -4.06752 0.368282
head 9.45349 -1.96275 -0.177213
rclavicle -6.19338e-015 -1.87852e-014
rhumerus -27.9062 -17.3057 -80.1841
rradius 23.2946
rwrist 6.42865
rhand -18.1765 18.504
rfingers 7.12502
rthumb 8.1 -11.3208
lclavicle -6.19338e-015 -1.87852e-014
lhumerus -28.4085 -3.01665 85.6446
lradius 27.2129
lwrist 7.48556
lhand -29.2045 23.5461
lfingers 7.12502
lthumb -2.54924 53.5106
rfemur -9.46251 6.15635 31.5035
rtibia 27.9994
rfoot -12.3802 -1.41296
rtoes 11.781
lfemur -19.5756 3.69157 -13.7414
ltibia 70.3335
lfoot -1.54286 -10.804
ltoes -7.10678
158
root -0.368904 18.2138 3.03828 -3.4268 -1.51054 -5.57189
lowerback 11.1867 -0.00950469 3.30986
upperback 0.587549 0.53533 2.18454
thorax -5.65689 0.205417 0.339446
lowerneck -16.648 -3.06637 -1.41837
upperneck 21.132 -3.99284 0.402622
head 9.45638 -1.92974 -0.142358
rclavicle -1.34118e-014 -2.5842e-015
rhumerus -27.9178 -16.5133 -80.4462
rradius 23.8204
rwrist 5.79624
rhand -18.2981 18.9338
rfingers 7.12502
rthumb 7.98258 -10.8955
lclavicle -1.34118e-014 -2.5842e-015
lhumerus -28.8538 -2.75712 85.6572
lradius 27.2869
lwrist 7.30544
lhand -29.151 22.2258
lfingers 7.12502
lthumb -2.49755 52.191
rfemur -8.90942 6.07325 31.6971
rtibia 28.1904
rfoot -13.0817 -1.46331
rtoes 10.8477
lfemur -20.4685 3.63834 -13.7026
ltibia 69.8289
lfoot -2.50628 -9.95019
ltoes -9.02322
159
root -0.369582 18.2077 3.20539 -3.46533 -1.54264 -5.63982
lowerback 11.1766 0.117108 3.4506
upperback 0.587787 0.718126 2.13827
thorax -5.64544 0.291183 0.182879
lowerneck -16.5464 -3.07914 -1.44502
upperneck 21.1693 -4.02958 0.504324
head 9.45398 -1.93757 -0.106357
rclavicle 5.45571e-015 1.07841e-014
rhumerus -27.8719 -15.6637 -80.7817
rradius 24.6923
rwrist 5.1906
rhand -18.4149 21.2698
rfingers 7.12502
rthumb 7.86991 -8.56369
lclavicle 5.45571e-015 1.07841e-014
lhumerus -29.0382 -2.6503 85.7394
lradius 27.3265
lwrist 7.27701
lhand -27.1905 25.9768
lfingers 7.12502
lthumb -0.604074 55.9557
rfemur -8.34559 5.89108 31.8156
rtibia 28.3999
rfoot -13.8496 -1.18657
rtoes 10.8181
lfemur -21.3506 3.60471 -13.7055
ltibia 69.0998
lfoot -3.16262 -9.21144
ltoes -10.3204
160
root -0.371479 18.1987 3.37308 -3.50042 -1.74312 -5.58721
lowerback 11.1849 0.349846 3.54156
upperback 0.726668 1.02417 1.9776
thorax -5.4922 0.44044 -0.0849551
lowerneck -16.9973 -3.15244 -1.2983
upperneck 21.268 -4.19093 0.605618
head 9.57266 -1.98526 -0.125379
rclavicle -1.95011e-014 -1.77792e-014
rhumerus -27.4568 -15.2618 -81.1835
rradius 25.3133
rwrist 4.73632
rhand -18.6974 22.6918
rfingers 7.12502
rthumb 7.59725 -7.15174
lclavicle -1.95011e-014 -1.77792e-014
lhumerus -29.0605 -2.89822 85.8105
lradius 26.9571
lwrist 8.45379
lhand -27.4774 20.7847
lfingers 7.12502
lthumb -0.881208 50.7626
rfemur -7.7388 5.79916 31.8199
rtibia 28.5287
rfoot -14.5056 -1.05166
rtoes 10.4171
lfemur -22.2756 3.60637 -13.8653
ltibia 68.1596
lfoot -3.81298 -8.48386
ltoes -9.59434
161
root -0.378293 18.1782 3.52431 -3.50385 -1.96569 -5.86754
lowerback 11.2927 0.512584 3.86913
upperback 0.793018 1.28436 1.97367
thorax -5.46864 0.561172 -0.314645
lowerneck -17.0711 -3.18532 -1.27362
upperneck 21.1794 -4.25479 0.665581
head 9.55671 -2.00581 -0.117544
rclavicle -1.71918e-015 -1.24986e-014
rhumerus -27.1174 -14.4122 -81.5944
rradius 25.9234
rwrist 4.02225
rhand -19.0482 22.7447
rfingers 7.12502
rthumb 7.25862 -7.11083
lclavicle -1.71918e-015 -1.24986e-014
lhumerus -29.1051 -2.61659 85.7116
lradius 26.8158
lwrist 7.96609
lhand -28.8016 19.2415
lfingers 7.12502
lthumb -2.16011 49.2103
rfemur -7.22761 5.94166 32.2519
rtibia 28.6636
rfoot -15.024 -1.21331
rtoes 9.35138
lfemur -23.1954 3.71986 -13.5642
ltibia 67.135
lfoot -4.79391 -7.51831
ltoes -8.98286
162
root -0.385362 18.1631 3.68108 -3.39101 -2.1502 -6.12811
lowerback 11.2362 0.683837 4.1809
upperback 0.756228 1.54844 1.95826
thorax -5.45878 0.683067 -0.54618
lowerneck -16.9053 -3.22228 -1.28734
upperneck 21.1229 -4.32838 0.770627
head 9.50991 -2.03036 -0.0852886
rclavicle 5.80824e-016 -1.21756e-014
rhumerus -26.8288 -13.8341 -81.8496
rradius 26.186
rwrist 3.39314
rhand -18.9139 22.9579
rfingers 7.12502
rthumb 7.38828 -6.89311
lclavicle 5.80824e-016 -1.21756e-014
lhumerus -29.236 -2.50715 85.6332
lradius 26.6055
lwrist 7.45476
lhand -29.4169 19.8988
lfingers 7.12502
lthumb -2.75435 49.8608
rfemur -6.81441 5.96094 32.62
rtibia 28.7861
rfoot -15.4601 -1.18552
rtoes 8.91783
lfemur -23.9871 3.75117 -13.2658
ltibia 66.0319
lfoot -5.74398 -6.33617
ltoes -7.68441
163
root -0.382717 18.1495 3.84843 -3.3273 -2.12826 -6.15811
lowerback 11.0962 0.76396 4.35369
upperback 0.825554 1.66 1.87207
thorax -5.29556 0.736825 -0.747442
lowerneck -16.9702 -3.22433 -1.14776
upperneck 21.0251 -4.36006 0.745282
head 9.48387 -2.03679 -0.121281
rclavicle -9.94545e-015 -1.42628e-014
rhumerus -26.1523 -13.3761 -82.137
rradius 26.1753
rwrist 3.07271
rhand -19.1176 23.4757
rfingers 7.12502
rthumb 7.19159 -6.3821
lclavicle -9.94545e-015 -1.42628e-014
lhumerus -29.1996 -1.92823 85.455
lradius 26.296
lwrist 6.90848
lhand -29.0267 20.8679
lfingers 7.12502
lthumb -2.37754 50.8344
rfemur -6.32774 5.7031 32.652
rtibia 28.877
rfoot -15.9456 -1.06217
rtoes 9.36806
lfemur -24.6164 3.61136 -13.3624
ltibia 64.8036
lfoot -6.50889 -5.19405
ltoes -7.64456
